<svg width="13" height="20" viewBox="0 0 13 20" fill="none" xmlns="http://www.w3.org/2000/svg">
<path d="M12.0036 0.00416134L9.23647 0C6.12763 0 4.11857 1.9319 4.11857 4.92203V7.19141H1.3363C1.09587 7.19141 0.901184 7.37409 0.901184 7.59943V10.8875C0.901184 11.1128 1.0961 11.2953 1.3363 11.2953H4.11857V19.5922C4.11857 19.8175 4.31326 20 4.55368 20H8.18376C8.42418 20 8.61887 19.8173 8.61887 19.5922V11.2953H11.872C12.1124 11.2953 12.3071 11.1128 12.3071 10.8875L12.3084 7.59943C12.3084 7.49123 12.2625 7.38762 12.181 7.31105C12.0995 7.23448 11.9885 7.19141 11.8731 7.19141H8.61887V5.26763C8.61887 4.34298 8.85397 3.87358 10.1391 3.87358L12.0032 3.87295C12.2434 3.87295 12.4381 3.69027 12.4381 3.46514V0.411972C12.4381 0.187052 12.2436 0.00457747 12.0036 0.00416134Z" fill="white"/>
</svg>
